<?xml version="1.0" standalone="no"?>
<!DOCTYPE svg PUBLIC "-//W3C//DTD SVG 20010904//EN"
 "http://www.w3.org/TR/2001/REC-SVG-20010904/DTD/svg10.dtd">
<svg version="1.0" xmlns="http://www.w3.org/2000/svg"
 width="700.000000pt" height="700.000000pt" viewBox="0 0 700.000000 700.000000"
 preserveAspectRatio="xMidYMid meet">
<metadata>
Created by potrace 1.14, written by Peter Selinger 2001-2017
</metadata>
<g transform="translate(0.000000,700.000000) scale(0.100000,-0.100000)"
fill="#000000" stroke="none">
<path d="M1283 6792 c-7 -5 -164 -156 -348 -337 l-335 -329 0 -311 0 -310
-250 0 c-137 1 -250 0 -250 -1 0 -4 102 -227 151 -331 l39 -83 155 0 155 0 1
-1637 c0 -2012 -1 -1961 45 -2278 11 -75 45 -220 70 -293 142 -423 421 -632
849 -636 l120 -1 1 43 c0 23 -2 42 -5 43 -53 7 -77 15 -139 44 -151 71 -261
227 -345 490 -21 66 -54 216 -62 285 -3 30 -8 62 -10 70 -3 14 -12 92 -21 180
-14 155 -18 561 -18 2015 l0 1670 276 3 275 2 -83 173 c-47 94 -93 188 -104
207 l-19 35 -166 1 c-112 0 -169 4 -173 11 -4 7 -7 140 -7 297 l1 285 66 68
c36 37 81 84 98 103 42 46 164 175 263 277 69 72 83 82 106 77 142 -33 278
-174 335 -346 30 -90 47 -194 50 -298 l2 -65 243 -2 243 -2 -6 72 c-6 76 -9
92 -33 172 -68 227 -264 428 -524 537 -88 37 -216 75 -284 84 -27 3 -54 8 -58
11 -15 9 -291 13 -304 5z"/>
<path d="M3315 5082 c-36 -3 -50 -14 -133 -100 -51 -53 -157 -162 -236 -242
-157 -160 -197 -208 -224 -268 l-18 -41 -167 239 c-92 131 -173 240 -180 242
-27 8 -362 1 -359 -8 1 -5 108 -170 237 -366 l235 -357 4 -1268 c2 -697 6
-1304 10 -1348 13 -201 17 -243 22 -280 2 -22 6 -53 8 -70 9 -81 20 -140 47
-251 83 -347 247 -563 497 -658 137 -52 245 -65 477 -57 l41 1 1 44 c2 43 0
45 -30 51 -52 11 -165 75 -218 123 -145 130 -268 411 -313 717 -4 22 -11 65
-16 95 -5 30 -12 84 -15 120 -3 36 -8 83 -10 105 -18 188 -30 2641 -13 2693 6
18 150 192 213 258 5 6 33 37 60 69 28 32 55 63 60 69 6 6 55 63 110 126 137
158 139 160 179 204 l34 39 63 -27 c266 -115 463 -383 515 -701 3 -22 7 -564
9 -1205 2 -1041 7 -1375 20 -1505 18 -182 22 -216 36 -295 18 -100 71 -314 80
-325 5 -5 9 -15 9 -23 0 -31 87 -212 142 -294 151 -225 379 -346 644 -342 164
3 149 -2 149 46 l0 43 -67 17 c-112 28 -193 92 -270 213 -114 177 -194 453
-233 800 -3 28 -8 66 -10 85 -3 19 -7 69 -10 110 -3 41 -9 107 -12 145 -3 39
-7 605 -7 1258 l-1 1188 124 147 c68 81 135 161 150 177 14 17 62 73 106 125
43 52 95 113 114 135 20 22 51 59 69 82 19 23 43 52 54 65 11 13 31 36 44 52
l25 29 42 -19 c264 -119 452 -413 484 -759 2 -27 6 -594 8 -1260 2 -665 6
-1244 8 -1286 11 -161 18 -255 22 -279 2 -14 7 -56 10 -94 3 -38 7 -72 10 -75
2 -4 6 -27 10 -51 39 -274 156 -534 304 -678 166 -160 363 -221 689 -213 l52
1 0 44 0 43 -65 16 c-172 43 -308 201 -399 467 -25 74 -69 248 -81 325 -4 22
-9 49 -10 60 -5 27 -23 167 -31 240 -21 188 -26 477 -28 1650 -3 1221 -1 1187
-57 1360 -88 277 -277 464 -566 561 -43 14 -87 28 -98 30 -11 2 -31 6 -45 9
-14 3 -38 7 -55 10 -16 3 -43 8 -60 11 -46 10 -415 13 -460 5 -34 -7 -59 -27
-171 -142 -155 -158 -216 -224 -266 -291 -20 -27 -40 -49 -43 -49 -4 0 -25 28
-47 63 -123 189 -358 338 -615 388 -32 6 -67 13 -78 15 -65 13 -129 17 -290
19 -99 1 -198 0 -220 -2z"/>
</g>
</svg>
